<svg width="98" height="55" viewBox="0 0 98 55" fill="none" xmlns="http://www.w3.org/2000/svg">
<path d="M36.0845 9.77771V15.0158H42.6307V18.4206H36.0845V39.111H32.3691V6.28564H42.5422V9.77771H36.0845Z" fill="white"/>
<path d="M38.4731 39.024V20.4287H42.277V35.6192H46.877V39.1113H38.4731V39.024Z" fill="white"/>
<path d="M49.5307 34.0475C46.8768 34.0475 44.9307 32.7379 44.9307 29.7697V6.28554H48.646V29.6824C48.646 30.5554 48.9114 30.8173 49.4422 30.8173C49.973 30.8173 50.1499 30.5554 50.1499 29.6824V6.19824H53.8653V29.6824C53.8653 32.476 52.273 34.0475 49.5307 34.0475ZM59.0845 39.1109H55.1037L58.3768 27.9363L55.4576 17.984H59.3499L60.5884 23.3967L61.8268 17.984H65.5422L62.446 28.8094L65.4537 39.1109H61.5614L60.323 33.4363L59.0845 39.1109ZM65.6307 6.28554H55.3691V9.77761H65.5422V6.28554H65.6307Z" fill="white"/>
<path d="M53.5998 35.5316H48.7344V39.0237H53.5998V35.5316ZM65.6305 12.1348H55.369V15.6268H65.5421V12.1348H65.6305Z" fill="white"/>
<path d="M72 45.3968H26V0H72V45.3968ZM29.7154 41.7302H68.2846V3.66667H29.7154V41.7302ZM30.1577 53.3413H27.7692L27.4154 54.127H26L27.9462 48.9762H29.8923L31.9269 54.127H30.4231L30.1577 53.3413ZM29.8038 52.381L29.0962 50.373H28.8308L28.1231 52.381H29.8038Z" fill="white"/>
<path d="M32.6348 51.595C32.6348 49.9363 33.7848 48.8887 35.4655 48.8887C36.6155 48.8887 37.854 49.4125 38.1194 50.9839H36.7925C36.6155 50.3728 36.0848 50.1109 35.4655 50.1109C34.6694 50.1109 33.9617 50.722 33.9617 51.6823C33.9617 52.6426 34.5809 53.2538 35.4655 53.2538C36.0848 53.2538 36.5271 52.9918 36.7925 52.2934H38.1194C37.854 53.8649 36.704 54.3887 35.4655 54.3887C33.8732 54.3014 32.6348 53.2537 32.6348 51.595Z" fill="white"/>
<path d="M43.25 53.3412H40.7731L40.5077 54.1269H39.0923L41.0384 48.9761H42.9846L44.9307 54.1269H43.5154L43.25 53.3412ZM42.8961 52.3808L42.1884 50.3729H41.9231L41.1269 52.3808H42.8961ZM51.5654 51.5951C51.5654 53.0792 50.7692 54.1269 48.7346 54.1269H46.2577V48.9761H48.7346C50.7692 49.0634 51.5654 50.111 51.5654 51.5951ZM50.15 51.5951C50.15 50.6348 49.6192 50.1983 48.7346 50.1983H47.6731V52.9919H48.7346C49.6192 52.9919 50.15 52.5554 50.15 51.5951ZM52.9807 49.0634H57.4038V50.1983H54.3077V51.1586H57.2269V52.1189H54.3077V53.0792H57.4038V54.1269H52.9807V49.0634Z" fill="white"/>
<path d="M58.9961 49.0635H60.7653L61.9153 52.3809H62.0038L63.1538 49.0635H64.923V54.127H63.5961V51.3333H63.5076L62.5346 54.127H61.473L60.4999 51.3333H60.4115V54.127H59.0846V49.0635H58.9961Z" fill="white"/>
<path d="M69.7885 52.5554V54.1269H68.3731V52.4681L66.25 48.9761H67.7538L69.0808 51.1586H69.1692L70.4962 48.9761H72L69.7885 52.5554Z" fill="white"/>
</svg>
