<svg width="92" height="36" viewBox="0 0 92 36" fill="none" xmlns="http://www.w3.org/2000/svg">
<path fill-rule="evenodd" clip-rule="evenodd" d="M36.9524 25.1836C36.6325 25.1836 36.3257 25.3097 36.0994 25.5343C35.8732 25.7588 35.7461 26.0633 35.7461 26.3809V34.7618C35.7461 35.0794 35.8732 35.3839 36.0994 35.6084C36.3257 35.833 36.6325 35.9591 36.9524 35.9591H53.8413C54.1613 35.9591 54.4681 35.833 54.6944 35.6084C54.9206 35.3839 55.0477 35.0794 55.0477 34.7618V26.3809C55.0477 26.0633 54.9206 25.7588 54.6944 25.5343C54.4681 25.3097 54.1613 25.1836 53.8413 25.1836H36.9524ZM39.9116 28.2438V32.7217H40.4581V31.0862H41.4437C41.7947 31.0862 42.083 31.0227 42.3074 30.8946C42.5224 30.7773 42.6962 30.5977 42.8056 30.3798C42.9142 30.1643 42.9685 29.9248 42.9685 29.6614C42.9685 29.3968 42.9142 29.1586 42.8056 28.943C42.6943 28.7264 42.5187 28.5488 42.3026 28.4342C42.0782 28.3073 41.7887 28.2438 41.4352 28.2438H39.9116ZM40.4581 30.6049H41.4268C41.6681 30.6049 41.8635 30.563 42.0107 30.4804C42.1502 30.4047 42.2617 30.2868 42.3291 30.1439C42.3987 29.9922 42.4333 29.8269 42.4305 29.6602C42.4332 29.4947 42.3986 29.3306 42.3291 29.1801C42.2619 29.0372 42.1491 28.9202 42.0083 28.8473C41.8247 28.758 41.6214 28.716 41.4171 28.7251H40.4569L40.4581 30.6049ZM43.8479 28.2438V32.7217H44.3944V30.9724H45.3812C45.4198 30.9724 45.4584 30.9724 45.4958 30.97L46.4464 32.7205H47.081L46.0616 30.8743C46.1255 30.8527 46.1858 30.8276 46.2425 30.7988C46.455 30.6939 46.6295 30.5262 46.742 30.3187C46.8505 30.1152 46.9048 29.8805 46.9048 29.6171C46.9048 29.3537 46.8505 29.1179 46.742 28.9107C46.6298 28.7004 46.4544 28.5301 46.2401 28.4234C46.0133 28.3037 45.7238 28.2438 45.3716 28.2438H43.8479ZM44.3944 30.4828H45.3631C45.6044 30.4828 45.7974 30.4468 45.9446 30.3774C46.0827 30.3174 46.1962 30.2127 46.2667 30.0805C46.3375 29.9363 46.3722 29.7774 46.368 29.6171C46.368 29.4375 46.3342 29.2819 46.2667 29.1466C46.1964 29.0102 46.0822 28.901 45.9422 28.8365C45.7576 28.7549 45.5565 28.7168 45.3547 28.7251H44.3944V30.4828ZM51.3635 31.7064C51.5348 31.3628 51.6204 30.9545 51.6204 30.4828C51.6204 30.0098 51.5348 29.6028 51.3635 29.2579C51.2077 28.9323 50.9628 28.6568 50.6566 28.4629C50.3485 28.2739 49.9921 28.1766 49.63 28.1828C49.2681 28.1764 48.9121 28.2736 48.6046 28.4629C48.2979 28.6566 48.0525 28.9322 47.8964 29.2579C47.7251 29.6028 47.6383 30.0098 47.6383 30.4828C47.6383 30.9545 47.7251 31.3628 47.8964 31.7064C48.0677 32.05 48.3042 32.3158 48.6034 32.5026C48.9025 32.6881 49.2451 32.7815 49.6288 32.7815C50.0148 32.7815 50.3562 32.6881 50.6566 32.5026C50.9557 32.3158 51.191 32.05 51.3635 31.7064ZM50.8966 29.501C51.0269 29.768 51.0921 30.0948 51.0921 30.4828C51.0921 30.8707 51.0269 31.1975 50.8966 31.4645C50.7834 31.7124 50.6003 31.9223 50.3695 32.0691C50.1479 32.2067 49.8912 32.2781 49.63 32.2751C49.3679 32.278 49.1105 32.2065 48.8881 32.0691C48.6577 31.9213 48.4748 31.711 48.3609 31.4633C48.2318 31.1975 48.1679 30.8707 48.1679 30.4816C48.1679 30.0948 48.2318 29.768 48.3609 29.501C48.4752 29.2536 48.6581 29.0435 48.8881 28.8952C49.1107 28.7582 49.3681 28.6872 49.63 28.6904C49.9026 28.6904 50.1487 28.7587 50.3695 28.8952C50.5914 29.0328 50.7676 29.234 50.8966 29.501Z" fill="white"/>
<g clip-path="url(#clip0_1207_38)">
<path d="M54.8867 14.3788H57.3884V0.019043H54.8867V14.3788Z" fill="white"/>
<path fill-rule="evenodd" clip-rule="evenodd" d="M41.0952 14.2318C41.6389 14.4579 42.1918 14.5708 42.7539 14.5708C43.6825 14.5708 44.5132 14.3448 45.2464 13.8928C45.9795 13.4407 46.5476 12.8175 46.9509 12.0234C47.3541 11.223 47.5557 10.3158 47.5557 9.30166C47.5557 8.28749 47.348 7.3803 46.9326 6.57999C46.5171 5.77968 45.9398 5.15959 45.2006 4.71973C44.4614 4.27376 43.6214 4.05382 42.6805 4.05993C42.0818 4.05993 41.5076 4.176 40.9578 4.40816C40.4078 4.64031 39.9497 4.97021 39.5831 5.39785C39.5548 5.43042 39.5273 5.4633 39.5007 5.49651V0.027832H36.9897V14.3785H39.4823L39.4773 13.0378C39.5418 13.1169 39.6107 13.1941 39.684 13.2696C40.0811 13.679 40.5515 13.9997 41.0952 14.2318ZM43.661 11.9133C43.2517 12.1638 42.7844 12.2891 42.259 12.2891C41.7397 12.2891 41.2632 12.1608 40.8294 11.9042C40.3957 11.6415 40.0505 11.2841 39.7939 10.832C39.5434 10.38 39.4182 9.86678 39.4182 9.2925C39.4121 8.71823 39.5343 8.20505 39.7847 7.75296C40.0413 7.29477 40.3865 6.94044 40.8203 6.68996C41.254 6.43337 41.7336 6.30813 42.259 6.31424C42.7844 6.30813 43.2517 6.43031 43.661 6.68079C44.0765 6.92516 44.3942 7.27644 44.6141 7.73463C44.8401 8.18672 44.9531 8.70605 44.9531 9.2925C44.9531 9.87896 44.8401 10.3983 44.6141 10.8504C44.3942 11.3024 44.0765 11.6568 43.661 11.9133Z" fill="white"/>
<path d="M7.96094 0.88916H10.82L13.3777 10.2296L16.0985 0.88916H18.481L21.4319 10.0422L23.8877 0.88916H26.5086L22.6414 14.3784H20.1763L17.1759 5.43663L14.4214 14.3784H11.9288L7.96094 0.88916Z" fill="white"/>
<path fill-rule="evenodd" clip-rule="evenodd" d="M30.7304 14.617C29.7346 14.623 28.8366 14.4031 28.0362 13.9571C27.2421 13.5051 26.6159 12.8788 26.1577 12.0786C25.7056 11.2782 25.4795 10.3649 25.4795 9.33855C25.4795 8.3428 25.7117 7.44164 26.176 6.63522C26.6402 5.8288 27.2696 5.19955 28.0637 4.74747C28.8579 4.29538 29.7437 4.06934 30.7213 4.06934C31.8209 4.06934 32.7831 4.31371 33.6079 4.80245C34.4387 5.29118 35.0588 5.98459 35.4681 6.88264C35.8835 7.77459 36.0332 8.79789 35.9172 9.95249H28.0676C28.0896 10.4125 28.2043 10.8311 28.412 11.208C28.6441 11.6234 28.9679 11.9472 29.3833 12.1793C29.7987 12.4115 30.2631 12.5275 30.7762 12.5275C31.1672 12.5215 31.5307 12.4542 31.8667 12.326C32.2027 12.1916 32.4868 12.0113 32.719 11.7853C32.9572 11.5593 33.1252 11.3027 33.2229 11.0156H35.8439C35.685 11.7181 35.3673 12.3443 34.8908 12.8941C34.4143 13.4378 33.8155 13.8624 33.0947 14.1679C32.3737 14.4733 31.5857 14.623 30.7304 14.617ZM28.4211 7.43247C28.2747 7.68778 28.1733 7.9627 28.1168 8.25724H33.3201C33.2823 7.88513 33.1675 7.54607 32.9755 7.24004C32.7557 6.87959 32.4563 6.60162 32.0775 6.40613C31.6987 6.20452 31.2711 6.10372 30.7946 6.10372C30.2875 6.10372 29.8263 6.21979 29.4109 6.45194C28.9954 6.6841 28.6655 7.01094 28.4211 7.43247Z" fill="white"/>
<path d="M49.3975 4.28009C49.3975 3.46144 49.5839 2.73445 49.9566 2.09909C50.3292 1.45762 50.8515 0.959715 51.5236 0.605384C52.2016 0.244933 52.9928 0.0586071 53.897 0.0463867V2.2732C53.4754 2.27931 53.115 2.3679 52.8157 2.53896C52.5224 2.7039 52.2963 2.94522 52.1375 3.2629C51.9912 3.55536 51.9123 3.89442 51.9007 4.28009H53.842V6.39694H51.8992V14.3787H49.3975V6.39694H47.7847V4.28009H49.3975Z" fill="white"/>
<path fill-rule="evenodd" clip-rule="evenodd" d="M63.7478 14.5985C62.7276 14.5985 61.8143 14.3755 61.0078 13.9295C60.2075 13.4775 59.5783 12.8543 59.1201 12.0601C58.668 11.2598 58.4419 10.3526 58.4419 9.33843C58.4419 8.31822 58.668 7.40792 59.1201 6.60761C59.5783 5.80119 60.2075 5.17499 61.0078 4.72902C61.8143 4.28305 62.7276 4.06006 63.7478 4.06006C64.7742 4.06006 65.6906 4.28305 66.497 4.72902C67.3095 5.17499 67.9418 5.79813 68.3939 6.59845C68.8459 7.39875 69.075 8.31208 69.0812 9.33843C69.075 10.3526 68.8459 11.2598 68.3939 12.0601C67.9479 12.8543 67.3187 13.4775 66.5061 13.9295C65.6936 14.3755 64.7742 14.5985 63.7478 14.5985ZM63.7478 12.2984C64.2854 12.2984 64.762 12.1762 65.1774 11.9318C65.5928 11.6813 65.9135 11.3331 66.1395 10.8871C66.3656 10.435 66.4787 9.91885 66.4787 9.33843C66.4787 8.75198 66.3656 8.23267 66.1395 7.78059C65.9135 7.3285 65.5928 6.98028 65.1774 6.7359C64.762 6.48542 64.2854 6.36019 63.7478 6.36019C63.2163 6.36019 62.7429 6.48542 62.3275 6.7359C61.9181 6.98028 61.6004 7.3285 61.3744 7.78059C61.1483 8.23267 61.0384 8.75198 61.0445 9.33843C61.0445 9.91885 61.1575 10.435 61.3835 10.8871C61.6157 11.3331 61.9334 11.6813 62.3366 11.9318C62.7459 12.1762 63.2163 12.2984 63.7478 12.2984Z" fill="white"/>
<path d="M71.7848 4.28027H68.999L72.0139 14.3789H74.4515L76.4344 7.9289L78.5755 14.3789H80.9763L84.0002 4.28027H81.4806L79.7654 10.566L77.8699 4.28027H75.432L73.5455 10.7045L71.7848 4.28027Z" fill="white"/>
</g>
<defs>
<clipPath id="clip0_1207_38">
<rect width="76" height="14.596" fill="white" transform="translate(8)"/>
</clipPath>
</defs>
</svg>
