<svg width="755" height="145" viewBox="0 0 755 145" fill="none" xmlns="http://www.w3.org/2000/svg">
<g clip-path="url(#clip0_1207_28)">
<path d="M465.78 142.84H490.632V0.187012H465.78V142.84Z" fill="white"/>
<path fill-rule="evenodd" clip-rule="evenodd" d="M328.772 141.383C334.174 143.629 339.666 144.751 345.25 144.751C354.475 144.751 362.728 142.506 370.011 138.015C377.294 133.524 382.938 127.333 386.944 119.444C390.95 111.493 392.952 102.481 392.952 92.406C392.952 82.331 390.889 73.3188 386.762 65.3683C382.635 57.4179 376.9 51.2578 369.556 46.8881C362.213 42.4577 353.868 40.2728 344.521 40.3335C338.574 40.3335 332.869 41.4866 327.407 43.7929C321.944 46.0991 317.393 49.3764 313.751 53.6247C313.47 53.9482 313.197 54.2749 312.932 54.6048V0.277832H287.988V142.84H312.75L312.7 129.522C313.341 130.307 314.025 131.074 314.753 131.824C318.698 135.891 323.371 139.077 328.772 141.383ZM354.262 118.351C350.196 120.839 345.553 122.084 340.334 122.084C335.175 122.084 330.441 120.809 326.132 118.26C321.823 115.65 318.394 112.1 315.845 107.609C313.357 103.118 312.113 98.02 312.113 92.315C312.052 86.61 313.266 81.512 315.754 77.0209C318.303 72.4691 321.732 68.9491 326.041 66.4608C330.35 63.9118 335.114 62.6676 340.334 62.7283C345.553 62.6676 350.196 63.8814 354.262 66.3697C358.389 68.7973 361.545 72.287 363.73 76.8388C365.975 81.3299 367.098 86.489 367.098 92.315C367.098 98.141 365.975 103.3 363.73 107.791C361.545 112.282 358.389 115.802 354.262 118.351Z" fill="white"/>
<path d="M-0.38916 8.83496H28.0139L53.4218 101.625L80.4508 8.83496H104.12L133.434 99.7628L157.831 8.83496H183.867L145.45 142.84H120.961L91.1538 54.0105L63.7908 142.84H39.0288L-0.38916 8.83496Z" fill="white"/>
<path fill-rule="evenodd" clip-rule="evenodd" d="M225.811 145.207C215.918 145.267 206.997 143.082 199.046 138.652C191.157 134.161 184.936 127.94 180.384 119.99C175.893 112.039 173.647 102.966 173.647 92.7698C173.647 82.8778 175.954 73.9255 180.566 65.9143C185.178 57.9032 191.43 51.6521 199.319 47.161C207.209 42.6699 216.009 40.4243 225.72 40.4243C236.644 40.4243 246.203 42.852 254.396 47.7072C262.65 52.5624 268.81 59.4508 272.876 68.3723C277.003 77.2331 278.49 87.3988 277.337 98.8688H199.358C199.576 103.439 200.716 107.597 202.779 111.341C205.085 115.468 208.302 118.685 212.428 120.991C216.555 123.297 221.168 124.45 226.266 124.45C230.15 124.39 233.761 123.722 237.099 122.448C240.437 121.113 243.259 119.322 245.566 117.077C247.932 114.831 249.601 112.282 250.572 109.43H276.609C275.031 116.409 271.875 122.63 267.141 128.092C262.407 133.493 256.459 137.711 249.298 140.746C242.136 143.78 234.307 145.267 225.811 145.207ZM202.87 73.8344C201.415 76.3707 200.408 79.1018 199.847 82.0278H251.537C251.162 78.3312 250.021 74.9629 248.114 71.9227C245.93 68.342 242.956 65.5805 239.193 63.6385C235.43 61.6357 231.182 60.6343 226.448 60.6343C221.411 60.6343 216.829 61.7874 212.702 64.0936C208.575 66.3999 205.297 69.6468 202.87 73.8344Z" fill="white"/>
<path d="M411.25 42.5185C411.25 34.3859 413.102 27.1638 416.804 20.852C420.506 14.4795 425.695 9.53316 432.371 6.01316C439.107 2.43236 446.967 0.581361 455.949 0.459961V22.5816C451.761 22.6423 448.181 23.5224 445.207 25.2217C442.294 26.8603 440.048 29.2576 438.47 32.4135C437.017 35.3189 436.233 38.6872 436.118 42.5185H455.403V63.5477H436.103V142.84H411.25V63.5477H395.228V42.5185H411.25Z" fill="white"/>
<path fill-rule="evenodd" clip-rule="evenodd" d="M553.811 145.025C543.676 145.025 534.603 142.809 526.591 138.379C518.641 133.888 512.39 127.697 507.838 119.808C503.347 111.857 501.101 102.845 501.101 92.77C501.101 82.635 503.347 73.5919 507.838 65.6414C512.39 57.6303 518.641 51.4095 526.591 46.9791C534.603 42.5487 543.676 40.3335 553.811 40.3335C564.007 40.3335 573.111 42.5487 581.122 46.9791C589.194 51.4095 595.475 57.5999 599.966 65.5504C604.457 73.5008 606.733 82.574 606.794 92.77C606.733 102.845 604.457 111.857 599.966 119.808C595.536 127.697 589.285 133.888 581.213 138.379C573.141 142.809 564.007 145.025 553.811 145.025ZM553.811 122.175C559.152 122.175 563.886 120.961 568.013 118.533C572.14 116.045 575.326 112.585 577.571 108.155C579.817 103.664 580.94 98.536 580.94 92.77C580.94 86.944 579.817 81.7851 577.571 77.294C575.326 72.8029 572.14 69.3436 568.013 66.9159C563.886 64.4276 559.152 63.1835 553.811 63.1835C548.531 63.1835 543.828 64.4276 539.701 66.9159C535.634 69.3436 532.478 72.8029 530.233 77.294C527.987 81.7851 526.895 86.944 526.956 92.77C526.956 98.536 528.078 103.664 530.324 108.155C532.63 112.585 535.786 116.045 539.792 118.533C543.858 120.961 548.531 122.175 553.811 122.175Z" fill="white"/>
<path d="M633.649 42.5186H605.975L635.925 142.84H660.141L679.84 78.7648L701.11 142.84H724.96L755 42.5186H729.97L712.93 104.962L694.1 42.5186H669.882L651.141 106.338L633.649 42.5186Z" fill="white"/>
</g>
<defs>
<clipPath id="clip0_1207_28">
<rect width="755" height="145" fill="white"/>
</clipPath>
</defs>
</svg>
